<?xml version="1.0" encoding="utf-8"?>
<!-- Generator: Adobe Illustrator 20.0.0, SVG Export Plug-In . SVG Version: 6.00 Build 0)  -->
<svg version="1.1" id="Layer_1" xmlns="http://www.w3.org/2000/svg" xmlns:xlink="http://www.w3.org/1999/xlink" x="0px" y="0px"
	 viewBox="0 0 245.7 246.2" style="enable-background:new 0 0 245.7 246.2;" xml:space="preserve">
<style type="text/css">
	.st0{fill:#727272;}
</style>
<path class="st0" d="M245.7,123.4c1.1,67-55.7,123.8-123.9,122.8C54.4,245.3,4.3,191.9,0.3,132C-4.8,56,57.8-1.5,125.7,0
	C189.9,1.5,246.8,55.3,245.7,123.4z M103.7,182.9c7.4,0,14.4-0.3,21.4,0.1c5,0.3,6.2-1.6,6.1-6.3c-0.3-13.7-0.2-27.3,0-41
	c0.1-7.6,5.7-13.3,13.1-13.7c7.1-0.4,11.7,3.5,13.2,11.5c0.4,2.3,0.4,4.6,0.4,7c0,12.7,0.1,25.3,0,38c0,2.6,0.3,4.5,3.7,4.5
	c6.8-0.1,13.7-0.1,20.5,0c2.7,0,3.4-1.2,3.4-3.7c-0.1-16.5,0.4-33-0.5-49.5c-1-19.7-15.1-31.2-34.6-29.4
	c-7.7,0.7-13.6,4.6-19.3,11.3c0-3,0.3-4.8-0.1-6.5c-0.3-1.2-1.5-3-2.3-3c-8.3-0.2-16.5-0.1-24.9-0.1
	C103.7,129.3,103.7,155.8,103.7,182.9z M62,142.2c0,12,0.1,23.9-0.1,35.9c-0.1,3.6,1.1,5.1,4.9,4.9c6.3-0.3,12.6-0.2,19,0
	c3.1,0.1,4.1-1.2,4.1-4.1c0-24.3-0.1-48.6,0-72.8c0-3.4-1.6-4.3-4.6-4.2c-6.2,0.1-12.3,0.2-18.5,0c-3.7-0.1-5,1.3-4.9,4.9
	C62.1,118.5,62,130.3,62,142.2z M75.7,92c9,0.1,15.5-5.8,15.6-14c0.1-8.4-6.3-14.5-15.1-14.5c-8.9-0.1-15.5,5.9-15.6,14
	C60.5,85.9,66.8,91.9,75.7,92z"/>
</svg>
