<?xml version="1.0" encoding="utf-8"?>
<!-- Generator: Adobe Illustrator 20.0.0, SVG Export Plug-In . SVG Version: 6.00 Build 0)  -->
<svg version="1.1" id="Layer_1" xmlns="http://www.w3.org/2000/svg" xmlns:xlink="http://www.w3.org/1999/xlink" x="0px" y="0px"
	 viewBox="0 0 246.2 245.5" style="enable-background:new 0 0 246.2 245.5;" xml:space="preserve">
<style type="text/css">
	.st0{fill:#727272;}
</style>
<path class="st0" d="M122.7,245.5C55.6,246.6-0.2,189.6,0,123C0.2,54.2,54.8,3.7,114.9,0.2c76.6-4.4,130.8,57.1,131.3,121.5
	C246.7,189.7,190.1,246.9,122.7,245.5z M62.4,162.7c0.7,0.6,1.4,1.2,2.2,1.7c47.6,26.1,105.6-4.4,108.2-61.6c0.2-3.5,1-5.8,3.7-8.1
	c3.1-2.6,5.6-5.9,8.4-8.9c-0.3-0.3-0.7-0.7-1-1c-3.3,0.9-6.6,1.8-9.9,2.7c2.9-4.2,5.5-8,8.1-11.8c-0.4-0.3-0.8-0.7-1.1-1
	c-2.4,1-4.8,2-7.2,3c-4.5,1.8-8.1,2.2-12.8-1.2c-14.6-10.4-35.5-1.8-39.2,15.8c-0.7,3.3-0.5,6.9-0.8,10.8
	c-20.8-1.3-37.4-10.6-51.4-26.4c-6.5,13.1-3.7,23.7,6.1,34c-3.9-1.1-6.6-1.8-9.9-2.8c0.5,12.4,6.9,20.1,18.1,25.4
	c-3.6,0.2-6,0.3-9.1,0.4c3.9,10.5,11.4,15.8,22.3,18.3C86,159.7,74.8,162.3,62.4,162.7z"/>
</svg>
